<?xml version="1.0" standalone="no"?>
<!DOCTYPE svg PUBLIC "-//W3C//DTD SVG 20010904//EN"
 "http://www.w3.org/TR/2001/REC-SVG-20010904/DTD/svg10.dtd">
<svg version="1.0" xmlns="http://www.w3.org/2000/svg"
 width="257.000000pt" height="95.000000pt" viewBox="0 0 257.000000 95.000000"
 preserveAspectRatio="xMidYMid meet">

<g transform="translate(0.000000,95.000000) scale(0.100000,-0.100000)"
fill="#000000" stroke="none">
<path d="M1820 570 c0 -37 -2 -40 -19 -30 -41 21 -71 -12 -71 -80 0 -66 12
-80 70 -79 l50 2 0 113 c0 95 -3 114 -15 114 -11 0 -15 -11 -15 -40z m-5 -110
c0 -52 -1 -55 -25 -55 -19 0 -26 7 -34 33 -12 44 6 85 37 80 20 -3 22 -9 22
-58z"/>
<path d="M2130 574 c0 -34 -2 -36 -25 -30 -37 9 -65 -23 -65 -77 0 -63 21 -86
75 -85 l45 1 0 113 c0 95 -3 114 -15 114 -11 0 -15 -11 -15 -36z m-5 -114 c0
-52 -1 -55 -25 -55 -22 0 -25 5 -28 44 -4 57 3 73 30 69 21 -3 23 -9 23 -58z"/>
<path d="M720 506 c0 -107 10 -126 65 -126 55 0 65 19 65 126 0 56 -4 94 -10
94 -6 0 -10 -31 -10 -74 0 -94 -11 -126 -44 -126 -36 0 -46 27 -46 119 0 47
-4 81 -10 81 -6 0 -10 -38 -10 -94z"/>
<path d="M1052 588 c6 -18 28 -21 28 -4 0 9 -7 16 -16 16 -9 0 -14 -5 -12 -12z"/>
<path d="M1660 584 c0 -17 22 -14 28 4 2 7 -3 12 -12 12 -9 0 -16 -7 -16 -16z"/>
<path d="M941 541 c-8 -5 -20 -7 -28 -4 -10 4 -13 -12 -13 -76 0 -47 4 -81 10
-81 6 0 10 26 10 58 0 65 9 85 36 80 16 -3 19 -14 22 -71 2 -51 6 -67 17 -67
12 0 15 15 15 65 0 52 -4 69 -20 85 -22 22 -29 24 -49 11z"/>
<path d="M1300 543 c-27 -10 -40 -36 -40 -84 0 -60 19 -81 68 -77 19 2 37 9
40 15 2 9 -5 11 -29 6 -25 -5 -35 -2 -46 12 -21 29 -16 34 35 37 45 3 47 4 45
33 -1 17 -12 38 -24 48 -22 18 -25 19 -49 10z m48 -45 c3 -15 -4 -18 -33 -18
-33 0 -35 2 -25 21 14 24 53 22 58 -3z"/>
<path d="M1456 541 c-3 -5 -15 -7 -26 -4 -19 5 -20 0 -20 -76 0 -65 3 -81 15
-81 12 0 15 14 15 66 0 57 3 67 20 71 11 3 20 12 20 19 0 16 -16 19 -24 5z"/>
<path d="M1532 534 c-33 -23 -25 -55 21 -79 21 -12 36 -26 35 -35 -5 -22 -38
-24 -53 -3 -16 22 -34 9 -19 -15 6 -10 27 -18 47 -20 31 -3 39 1 48 22 14 29
3 48 -40 69 -31 15 -41 47 -14 47 11 0 24 -5 30 -11 6 -6 17 -9 24 -7 9 3 6
11 -9 26 -26 26 -40 27 -70 6z"/>
<path d="M1924 540 c-26 -10 -40 -40 -19 -40 8 0 15 5 15 10 0 6 11 10 25 10
18 0 25 -5 25 -20 0 -12 -7 -20 -18 -20 -28 0 -62 -29 -62 -54 0 -33 19 -45
68 -43 l42 1 0 68 c0 58 -3 69 -22 82 -25 18 -25 18 -54 6z m44 -107 c-2 -20
-9 -29 -25 -31 -19 -3 -23 1 -23 21 0 25 11 35 38 36 9 1 12 -9 10 -26z"/>
<path d="M1050 460 c0 -64 3 -80 15 -80 12 0 15 16 15 80 0 64 -3 80 -15 80
-12 0 -15 -16 -15 -80z"/>
<path d="M1120 533 c0 -27 45 -153 54 -150 6 2 19 30 29 63 9 32 20 67 23 77
3 10 0 17 -9 17 -9 0 -18 -20 -26 -56 -7 -30 -15 -53 -18 -51 -2 3 -10 27 -17
53 -6 26 -17 49 -24 52 -7 2 -12 0 -12 -5z"/>
<path d="M1660 460 c0 -64 3 -80 15 -80 12 0 15 16 15 80 0 64 -3 80 -15 80
-12 0 -15 -16 -15 -80z"/>
<path d="M1790 185 c0 -108 1 -115 20 -115 19 0 20 7 20 115 0 108 -1 115 -20
115 -19 0 -20 -7 -20 -115z"/>
<path d="M1873 284 c-9 -23 13 -40 32 -24 12 10 13 16 4 26 -15 18 -28 18 -36
-2z"/>
<path d="M710 181 l0 -111 25 0 c24 0 25 3 26 63 l1 62 17 -60 c24 -84 44 -84
70 -3 l20 63 0 -62 c1 -60 2 -63 26 -63 l25 0 0 111 0 110 -32 -3 c-27 -3 -33
-8 -41 -38 -22 -91 -29 -112 -34 -107 -2 3 -13 36 -22 74 -16 65 -19 68 -49
71 l-32 3 0 -110z"/>
<path d="M1108 248 c-3 -50 5 -144 13 -160 12 -22 59 -24 59 -3 0 8 -4 15 -10
15 -5 0 -10 23 -10 50 0 28 5 50 10 50 6 0 10 7 10 15 0 8 -4 15 -10 15 -5 0
-10 9 -10 20 0 30 -49 28 -52 -2z"/>
<path d="M1960 250 c0 -11 -4 -20 -10 -20 -5 0 -10 -7 -10 -15 0 -8 4 -15 10
-15 5 0 10 -28 12 -62 3 -60 4 -63 31 -66 19 -2 27 1 27 12 0 8 -4 18 -10 21
-5 3 -10 26 -10 51 0 24 5 44 10 44 6 0 10 7 10 15 0 8 -4 15 -10 15 -5 0 -10
9 -10 20 0 13 -7 20 -20 20 -13 0 -20 -7 -20 -20z"/>
<path d="M966 208 c-21 -29 -20 -87 0 -116 13 -19 24 -22 57 -20 30 2 43 8 45
20 3 15 -2 17 -28 11 -22 -4 -35 -2 -40 8 -13 21 -2 29 41 29 34 0 39 3 39 23
0 39 -27 67 -65 67 -24 0 -39 -7 -49 -22z m68 -23 c4 -11 -1 -15 -19 -15 -18
0 -23 4 -19 15 4 8 12 15 19 15 7 0 15 -7 19 -15z"/>
<path d="M1210 149 c0 -72 2 -79 20 -79 18 0 20 7 20 60 0 53 2 60 20 60 13 0
20 7 20 19 0 15 -8 19 -40 19 l-40 1 0 -80z"/>
<path d="M1313 193 c-13 -33 -14 -43 -2 -78 14 -39 16 -40 59 -40 37 0 47 4
58 25 14 28 10 93 -8 115 -7 9 -29 15 -52 15 -36 0 -40 -3 -55 -37z m77 -18
c11 -30 -4 -79 -23 -73 -13 5 -22 61 -13 84 8 22 26 17 36 -11z"/>
<path d="M1470 120 c0 -103 1 -110 20 -110 16 0 20 7 20 33 0 31 2 33 28 29
17 -2 33 2 41 12 19 23 24 87 9 116 -12 21 -21 25 -66 27 l-52 2 0 -109z m75
29 c0 -32 -4 -44 -15 -44 -16 0 -26 54 -16 82 12 30 31 6 31 -38z"/>
<path d="M1640 215 c-18 -22 -22 -87 -8 -115 11 -21 21 -25 58 -25 43 0 45 1
59 40 12 35 11 45 -2 78 -15 34 -19 37 -55 37 -23 0 -45 -6 -52 -15z m65 -65
c0 -50 -20 -65 -35 -26 -6 17 -6 35 0 52 15 39 35 24 35 -26z"/>
<path d="M1870 150 c0 -73 2 -80 20 -80 18 0 20 7 20 80 0 73 -2 80 -20 80
-18 0 -20 -7 -20 -80z"/>
<path d="M2060 211 c-5 -11 -10 -22 -10 -25 0 -10 39 -6 45 4 9 14 25 12 25
-2 0 -7 -15 -20 -33 -28 -27 -13 -32 -20 -32 -50 l0 -35 58 -2 57 -2 0 60 c0
81 -11 99 -60 99 -29 0 -42 -5 -50 -19z m60 -91 c0 -11 -7 -20 -15 -20 -15 0
-21 21 -8 33 12 13 23 7 23 -13z"/>
<path d="M2200 149 c0 -72 2 -79 20 -79 16 0 19 8 22 62 2 50 6 63 21 66 15 3
17 -5 17 -62 0 -60 2 -66 20 -66 19 0 21 5 18 78 l-3 77 -57 2 -58 2 0 -80z"/>
<path d="M2372 218 c-18 -18 -14 -38 8 -38 11 0 20 5 20 10 0 6 7 10 15 10 28
0 15 -27 -17 -36 -30 -9 -33 -13 -33 -49 l0 -40 58 -2 57 -2 0 54 c0 83 -12
105 -58 105 -21 0 -43 -5 -50 -12z m58 -98 c0 -11 -7 -20 -15 -20 -8 0 -15 9
-15 20 0 11 7 20 15 20 8 0 15 -9 15 -20z"/>
</g>
</svg>
