<?xml version="1.0" standalone="no"?>
<!DOCTYPE svg PUBLIC "-//W3C//DTD SVG 20010904//EN"
 "http://www.w3.org/TR/2001/REC-SVG-20010904/DTD/svg10.dtd">
<svg version="1.0" xmlns="http://www.w3.org/2000/svg"
 width="200pt" height="100pt" viewBox="0 0 100.000000 600.000000"
 preserveAspectRatio="xMidYMid meet">

<g transform="translate(0.000000,1187.000000) scale(0.100000,-0.100000)"
fill="#000000" stroke="none">
<path d="M19730 6771 l0 -469 -58 58 c-96 96 -209 140 -357 140 -165 0 -283
-47 -391 -156 -157 -157 -224 -396 -224 -799 0 -257 25 -434 83 -575 63 -156
161 -270 281 -328 85 -41 146 -54 256 -54 162 1 271 49 375 166 l55 61 0 -45
c0 -25 3 -69 6 -97 l7 -53 138 0 139 0 0 1310 0 1310 -155 0 -155 0 0 -469z
m-204 -562 c60 -23 128 -78 176 -143 l28 -39 0 -482 0 -483 -43 -58 c-78 -105
-161 -146 -297 -146 -191 0 -293 83 -352 287 -22 76 -23 96 -23 395 0 272 2
324 18 380 60 220 163 308 359 309 56 1 93 -5 134 -20z"/>
<path d="M23150 6766 l0 -474 -67 67 c-104 102 -204 141 -361 141 -328 -1
-532 -218 -593 -635 -19 -123 -16 -549 4 -665 68 -402 272 -611 595 -612 163
0 266 44 370 157 l60 65 7 -95 7 -95 139 0 139 0 0 1310 0 1310 -150 0 -150 0
0 -474z m-190 -566 c72 -37 107 -68 150 -132 l40 -60 0 -460 c0 -516 4 -485
-78 -578 -77 -88 -198 -129 -325 -111 -164 23 -250 109 -302 301 -23 84 -33
532 -16 664 29 218 105 338 243 388 77 27 225 21 288 -12z"/>
<path d="M11479 7117 c-53 -35 -81 -99 -77 -174 6 -101 58 -154 157 -161 48
-3 67 0 100 19 108 60 109 244 2 316 -47 32 -134 32 -182 0z"/>
<path d="M18050 7117 c-53 -35 -75 -81 -75 -157 0 -72 20 -118 68 -153 39 -30
140 -35 187 -9 107 59 107 266 0 323 -50 27 -137 26 -180 -4z"/>
<path d="M7733 6148 c3 -961 3 -963 25 -1048 38 -142 83 -224 176 -316 88 -87
173 -136 296 -169 133 -36 382 -36 520 0 243 62 412 235 486 495 17 61 19 128
22 1033 l3 967 -155 0 -155 0 -3 -947 c-3 -870 -5 -953 -21 -1008 -41 -139
-117 -230 -225 -268 -111 -40 -302 -41 -411 -2 -136 48 -214 162 -240 351 -7
48 -11 400 -11 975 l0 899 -155 0 -156 0 4 -962z"/>
<path d="M10301 6484 c-86 -23 -171 -74 -243 -145 l-67 -66 -3 96 -3 96 -142
3 -143 3 0 -926 0 -925 150 0 150 0 0 671 0 672 32 56 c17 31 58 81 89 112 70
69 140 99 233 99 159 0 250 -88 276 -267 5 -39 10 -340 10 -705 l0 -638 150 0
150 0 0 648 c0 379 -4 683 -10 732 -33 274 -146 433 -345 485 -73 19 -212 18
-284 -1z"/>
<path d="M14130 6484 c-177 -38 -321 -156 -409 -336 -93 -189 -117 -347 -108
-706 6 -238 16 -314 61 -439 57 -155 164 -278 299 -342 113 -54 205 -72 357
-72 233 0 385 56 523 191 l80 78 -73 89 c-40 48 -76 91 -79 95 -4 4 -35 -19
-69 -52 -189 -179 -498 -197 -661 -38 -85 84 -141 257 -141 441 l0 57 516 0
517 0 -6 223 c-6 227 -14 292 -58 430 -63 198 -218 341 -414 382 -87 18 -249
18 -335 -1z m316 -272 c53 -27 99 -73 125 -124 31 -60 59 -183 66 -285 l6 -93
-366 0 -366 0 5 53 c26 270 99 406 247 459 73 26 225 21 283 -10z"/>
<path d="M15829 6483 c-62 -20 -135 -77 -184 -142 l-40 -54 -3 91 -3 92 -144
0 -145 0 0 -925 0 -925 150 0 150 0 0 665 0 666 30 59 c38 75 88 126 159 159
50 23 67 26 164 25 l107 -1 0 143 0 142 -31 11 c-45 16 -156 13 -210 -6z"/>
<path d="M16793 6485 c-155 -34 -303 -146 -368 -279 -85 -172 -69 -377 39
-509 77 -95 170 -153 421 -262 243 -106 348 -184 375 -280 18 -63 7 -139 -27
-193 -93 -149 -407 -159 -531 -18 -44 50 -60 84 -74 160 l-13 66 -147 0 -148
0 0 -48 c0 -65 24 -153 63 -226 39 -74 143 -181 217 -223 211 -120 548 -114
745 12 106 67 189 186 214 303 15 72 14 196 -3 258 -47 176 -170 279 -514 427
-193 84 -302 144 -330 185 -82 117 -38 287 92 354 28 15 66 23 122 26 99 5
163 -13 222 -64 50 -42 102 -143 102 -196 l0 -38 150 0 150 0 0 48 c0 168
-119 357 -277 440 -129 68 -324 91 -480 57z"/>
<path d="M20952 6480 c-120 -32 -198 -76 -282 -160 -85 -84 -131 -163 -155
-261 -25 -107 -36 -99 134 -99 165 0 152 -6 165 71 14 82 107 175 200 200 64
17 213 7 261 -18 102 -54 126 -112 133 -319 l4 -151 -193 -6 c-221 -6 -303
-22 -429 -84 -98 -48 -213 -160 -258 -253 -91 -185 -78 -450 30 -610 137 -205
472 -269 693 -131 42 25 145 127 145 142 0 5 4 9 9 9 4 0 11 -26 14 -57 4 -32
11 -75 17 -95 l11 -38 159 0 c174 0 171 -1 149 57 -39 103 -41 143 -48 783
l-6 625 -28 78 c-34 97 -60 139 -126 200 -61 57 -151 102 -247 122 -98 21
-262 18 -352 -5z m456 -1183 c3 -249 3 -246 -84 -327 -90 -83 -215 -121 -339
-103 -130 19 -183 74 -206 214 -27 161 35 296 168 366 97 52 204 72 368 69
l90 -1 3 -218z"/>
<path d="M11420 5545 l0 -925 150 0 150 0 0 925 0 925 -150 0 -150 0 0 -925z"/>
<path d="M12050 6464 c0 -3 122 -411 271 -907 148 -496 272 -910 275 -919 5
-16 19 -18 119 -18 100 0 114 2 119 18 3 9 124 420 270 913 146 492 266 900
266 907 0 9 -40 12 -150 12 l-149 0 -11 -37 c-5 -21 -80 -317 -166 -658 -85
-341 -160 -636 -166 -655 -10 -32 -24 15 -192 655 l-181 690 -152 3 c-84 1
-153 0 -153 -4z"/>
<path d="M17990 5545 l0 -925 150 0 150 0 0 925 0 925 -150 0 -150 0 0 -925z"/>
<path d="M19460 2800 l0 -1320 245 0 245 0 0 1320 0 1320 -245 0 -245 0 0
-1320z"/>
<path d="M20510 4071 c-49 -15 -89 -41 -123 -81 -92 -108 -70 -297 44 -380
101 -73 275 -59 356 28 49 53 67 102 67 182 1 126 -59 213 -168 245 -53 16
-134 18 -176 6z"/>
<path d="M7670 2735 l0 -1255 250 0 250 0 0 380 c0 231 -8 555 -21 826 -11
246 -19 456 -17 468 2 11 113 -360 248 -824 l246 -845 174 0 173 0 246 847
c135 465 247 845 249 843 2 -1 -6 -206 -17 -453 -13 -280 -21 -601 -21 -847
l0 -395 250 0 250 0 0 1255 0 1255 -325 0 c-299 0 -325 -1 -333 -17 -5 -10
-112 -415 -238 -900 -126 -485 -232 -879 -235 -875 -4 4 -109 399 -233 877
-125 479 -231 880 -236 893 l-10 22 -325 0 -325 0 0 -1255z"/>
<path d="M12080 3570 l0 -230 -110 0 -110 0 2 -182 3 -183 107 -3 107 -3 3
-567 c3 -499 6 -574 21 -625 29 -99 67 -165 129 -222 67 -63 138 -93 248 -105
110 -12 300 11 338 42 9 8 12 59 12 192 l0 181 -87 -3 c-102 -3 -130 7 -155
58 -16 32 -18 79 -18 542 l0 507 123 3 122 3 3 183 2 182 -125 0 -125 0 0 230
0 230 -245 0 -245 0 0 -230z"/>
<path d="M21297 3793 c-4 -3 -7 -107 -7 -230 l0 -223 -105 0 -105 0 0 -185 0
-185 104 0 104 0 5 -552 c5 -598 7 -625 61 -741 48 -100 137 -178 239 -208
104 -31 279 -28 395 6 l52 16 0 187 0 187 -80 -3 c-95 -5 -134 8 -158 52 -15
28 -17 83 -20 544 l-3 512 126 0 125 0 0 185 0 185 -125 0 -125 0 0 230 0 230
-238 0 c-131 0 -242 -3 -245 -7z"/>
<path d="M10916 3369 c-170 -18 -292 -75 -406 -189 -164 -163 -240 -416 -240
-796 0 -240 31 -410 102 -554 60 -122 179 -241 298 -298 104 -51 176 -70 300
-81 265 -24 517 55 673 210 l57 58 -86 133 c-47 73 -91 138 -98 145 -8 9 -25
1 -71 -34 -106 -81 -204 -113 -344 -113 -115 0 -176 21 -236 83 -57 59 -90
139 -101 251 l-7 66 487 0 486 0 0 133 c-1 645 -191 945 -629 987 -53 5 -98 9
-101 8 -3 0 -40 -4 -84 -9z m221 -425 c65 -48 98 -129 109 -269 l7 -85 -247 0
-247 0 6 58 c7 61 27 150 44 193 14 38 71 100 106 116 48 21 186 13 222 -13z"/>
<path d="M13819 3369 c-86 -13 -169 -76 -231 -172 l-33 -52 -2 55 c-2 30 -5
74 -9 98 l-5 42 -230 0 -229 0 0 -930 0 -930 245 0 245 0 0 618 0 618 28 45
c59 91 125 122 255 121 49 -1 102 -4 117 -7 l27 -6 6 137 c4 75 7 184 7 241 0
98 -1 104 -22 112 -37 13 -119 18 -169 10z"/>
<path d="M14792 3369 c-168 -16 -299 -76 -412 -189 -153 -154 -220 -325 -242
-617 -9 -117 -9 -189 0 -305 14 -190 40 -294 104 -427 42 -88 62 -116 131
-186 141 -141 288 -197 522 -196 308 0 518 129 646 396 72 149 99 303 99 560
0 269 -28 424 -108 585 -38 78 -62 111 -132 182 -69 70 -101 94 -169 127 -130
63 -272 85 -439 70z m212 -429 c120 -81 166 -289 147 -655 -14 -248 -54 -354
-156 -412 -49 -28 -149 -31 -198 -7 -118 60 -164 185 -174 469 -12 352 38 541
162 613 56 32 165 28 219 -8z"/>
<path d="M16716 3369 c-90 -13 -179 -59 -246 -128 l-58 -59 -6 30 c-3 17 -6
45 -6 63 0 68 11 65 -236 65 l-224 0 2 -1287 3 -1288 240 0 240 0 3 429 2 429
60 -57 c102 -98 219 -133 382 -115 229 26 376 165 462 437 39 125 56 283 56
530 0 240 -10 350 -46 492 -60 240 -199 398 -390 444 -80 19 -167 25 -238 15z
m-8 -409 c58 -13 115 -57 142 -109 42 -83 55 -190 54 -446 -1 -263 -12 -353
-57 -442 -43 -84 -95 -113 -204 -113 -82 0 -135 22 -181 74 l-32 37 0 444 0
444 31 36 c36 41 78 65 129 76 52 10 64 10 118 -1z"/>
<path d="M18290 3370 c-324 -30 -554 -254 -633 -620 -29 -132 -31 -528 -4
-663 68 -339 265 -563 547 -623 109 -23 294 -21 393 5 280 73 457 281 523 615
22 113 29 385 15 529 -26 251 -99 425 -236 563 -63 64 -98 90 -165 123 -125
61 -276 85 -440 71z m189 -419 c45 -24 98 -81 119 -130 39 -93 44 -135 49
-372 6 -273 -6 -363 -59 -469 -45 -87 -95 -123 -182 -128 -86 -6 -127 10 -179
68 -84 93 -113 244 -104 550 6 212 19 289 63 371 30 54 65 90 109 113 43 22
137 21 184 -3z"/>
<path d="M22869 3370 c-170 -16 -311 -81 -425 -194 -101 -101 -163 -237 -164
-358 l0 -38 240 0 c184 0 242 3 245 13 2 6 6 34 10 61 5 37 15 58 45 90 l39
41 84 0 c77 0 88 -2 112 -25 45 -41 57 -84 63 -217 l5 -123 -99 0 c-427 0
-684 -151 -759 -445 -20 -79 -20 -259 1 -339 66 -257 321 -423 589 -385 94 13
163 47 230 112 31 30 58 50 60 43 2 -6 11 -37 20 -68 l16 -58 244 0 c278 0
258 -8 226 88 -40 117 -44 174 -51 777 -7 645 -5 616 -70 746 -102 201 -356
308 -661 279z m249 -1241 l2 -196 -41 -38 c-56 -50 -96 -65 -178 -65 -64 0
-73 3 -105 30 -52 46 -73 133 -57 232 28 164 127 239 311 235 l65 -2 3 -196z"/>
<path d="M24770 3369 c-119 -15 -222 -68 -310 -161 l-50 -52 0 61 c0 33 -3 75
-6 92 l-6 31 -229 0 -229 0 0 -930 0 -930 245 0 245 0 0 670 c0 743 -4 697 68
762 52 47 120 64 196 48 67 -14 107 -45 132 -102 18 -40 19 -85 22 -710 l3
-668 244 0 245 0 0 658 c0 759 -5 820 -81 981 -89 192 -260 279 -489 250z"/>
<path d="M26254 3369 c-97 -9 -218 -48 -296 -95 -167 -101 -263 -248 -284
-433 l-7 -61 245 0 245 0 6 51 c13 106 71 159 174 159 130 0 165 -49 171 -242
l4 -128 -99 0 c-411 0 -660 -138 -749 -417 -8 -26 -18 -100 -21 -163 -9 -189
32 -310 141 -428 91 -98 190 -147 324 -162 153 -17 271 20 372 116 44 42 60
52 60 39 0 -10 8 -42 17 -72 l17 -53 248 0 c169 0 248 3 248 11 0 6 -5 19 -10
30 -6 11 -21 54 -32 97 -21 73 -22 106 -28 677 -6 520 -9 608 -24 660 -85 302
-343 450 -722 414z m256 -1239 l0 -199 -36 -35 c-52 -50 -108 -69 -193 -64
-79 4 -103 19 -132 83 -26 56 -25 177 1 248 20 52 72 113 119 137 31 16 102
27 179 29 l62 1 0 -200z"/>
<path d="M20350 2410 l0 -930 245 0 245 0 0 930 0 930 -245 0 -245 0 0 -930z"/>
</g>
</svg>
